Land_normalized_Motion_pl16
version=1
nRows=8
nColumns=43
inDegrees=yes
endheader
time		pelvis_tilt		pelvis_list		pelvis_rotation		pelvis_tx		pelvis_ty		pelvis_tz		hip_flexion_r		hip_adduction_r		hip_rotation_r		knee_angle_r		ankle_angle_r		subtalar_angle_r		mtp_angle_r		hip_flexion_l		hip_adduction_l		hip_rotation_l		knee_angle_l		ankle_angle_l		subtalar_angle_l		mtp_angle_l		lumbar_extension		lumbar_bending		lumbar_rotation		neck_flexion		neck_lateral_bending		neck_rotation		arm_flex_r		arm_add_r		arm_rot_r		elbow_flex_r		pro_sup_r		wrist_flex_r		wrist_dev_r		hand_finger_flex_r		arm_flex_l		arm_add_l		arm_rot_l		elbow_flex_l		pro_sup_l		wrist_flex_l		wrist_dev_l		hand_finger_flex_l		
1.171667		-1.365653		4.275992		84.090976		-0.020067		0.660495		0.576345		66.363328		2.262668		3.164982		-104.830235		14.304415		2.770123		30.105726		64.023197		-6.220058		-2.897471		-103.979114		11.003062		5.657173		32.140617		-51.969815		-3.193983		0.695502		-0.736865		-2.338111		2.502361		-8.455272		-22.476794		-18.423922		69.231597		112.464559		-14.261862		-0.375866		30.200172		-20.626895		-17.997312		-26.768056		68.349360		94.787067		-19.415269		-9.186263		23.058786		
1.174975		-1.303398		4.447430		84.190316		-0.020267		0.654426		0.576060		66.976133		2.174258		3.114943		-105.932655		14.302232		3.099571		30.881616		64.612447		-6.348936		-2.782055		-105.076019		11.077513		5.860735		32.418149		-53.228348		-3.159685		0.627320		0.640193		-2.236446		2.464750		-5.657327		-23.161498		-17.067656		69.575152		112.638578		-14.162157		-0.354655		30.762452		-18.080334		-18.880617		-25.790937		69.090068		94.881633		-19.672703		-9.131515		23.130074		
1.178283		-1.114257		4.731676		84.383470		-0.020639		0.648998		0.575682		67.346994		2.029333		2.934853		-106.903593		14.367938		3.564759		32.193765		65.043510		-6.444461		-2.488424		-106.118997		11.140736		6.240555		32.918656		-54.599826		-2.939887		0.422412		1.974475		-2.198420		2.753511		-2.573560		-23.866441		-15.437364		69.763096		112.840934		-14.277848		-0.241174		31.546527		-15.606600		-19.638906		-24.880584		69.850188		94.709968		-20.479597		-9.119454		23.100975		
1.181591		-0.984083		4.933716		84.516278		-0.020931		0.643239		0.575149		67.864967		1.914803		2.836359		-107.954137		14.387470		4.011715		32.985983		65.568998		-6.544027		-2.257765		-107.195334		11.216695		6.504489		33.253871		-55.773897		-2.796079		0.296290		3.061816		-2.223756		2.899192		0.403181		-24.624738		-13.771533		69.961337		113.192581		-14.152638		-0.228459		31.949470		-13.196311		-20.570198		-23.804902		70.601617		94.673738		-20.817355		-9.122446		23.062653		
1.184899		-0.894775		5.135777		84.624773		-0.021190		0.637334		0.574440		68.430488		1.806097		2.796466		-109.066297		14.324780		4.427869		33.679941		66.099520		-6.638645		-2.084124		-108.316600		11.301308		6.702604		33.570699		-56.870000		-2.694131		0.188765		4.013902		-2.242015		2.994777		3.289353		-25.443684		-12.053030		70.220213		113.585404		-13.949717		-0.256392		32.309991		-10.857306		-21.643020		-22.555192		71.368260		94.719565		-20.949288		-9.116740		23.078778		
1.188207		-0.937785		5.385028		84.721870		-0.021566		0.631759		0.573653		68.972578		1.589210		2.904311		-110.148419		13.919007		4.771900		36.672059		66.498320		-6.653880		-2.077588		-109.335715		11.374567		6.854914		35.495538		-57.956916		-2.658927		-0.179755		4.820088		-2.321945		3.400929		6.522064		-26.264407		-9.772747		70.197423		113.885913		-14.705745		-0.079448		33.677207		-8.649401		-22.744589		-21.241711		72.139704		93.928981		-21.958904		-9.082662		23.377642		
1.191515		-0.858819		5.626891		84.767737		-0.021794		0.626148		0.572728		69.496726		1.467977		2.883888		-111.259029		13.920216		5.400193		36.830626		66.922256		-6.796855		-1.997199		-110.415354		11.451362		6.939126		35.683665		-58.968513		-2.583113		-0.173304		5.449887		-2.479811		3.328859		9.407823		-27.043567		-8.135645		70.377348		114.485072		-14.210848		-0.134041		33.750601		-6.229081		-23.787210		-19.987126		72.803491		94.384617		-21.769494		-8.953021		23.415817		
1.194823		-0.893249		5.955497		84.810871		-0.022200		0.620993		0.571789		69.921088		1.223281		2.971651		-112.326622		13.945904		6.201238		37.157663		67.173226		-6.874808		-2.086552		-111.399888		11.586336		6.999127		36.076959		-60.029678		-2.542582		-0.467782		5.936688		-2.725561		3.569190		12.657421		-27.754501		-6.072036		70.353985		115.459391		-13.945075		0.067367		33.664996		-3.964184		-24.721086		-18.974828		73.536920		94.790804		-22.115051		-8.542609		23.330048		
